<svg width="403" height="159" viewBox="0 0 403 159" fill="none" xmlns="http://www.w3.org/2000/svg">
<rect width="403" height="117" rx="58.5" transform="matrix(-1 0 0 1 403 0)" fill="#FFAEED"/>
<path d="M362.213 135.887C367.121 138.75 373.264 135.464 373.041 130.095L371.605 95.5202C371.39 90.3561 365.4 87.113 360.711 89.6217L330.548 105.756C325.858 108.265 325.895 114.693 330.614 117.447L362.213 135.887Z" fill="#FFAEED"/>
<path d="M88.696 93.864C88.024 91.4 87.448 88.984 86.968 86.616C86.488 84.28 86.12 82.184 85.864 80.328C85.608 78.472 85.48 77.096 85.48 76.2C85.48 73.832 85.864 71.672 86.632 69.72C87.4 67.768 88.392 66.056 89.608 64.584C90.824 63.08 92.136 61.816 93.544 60.792C94.952 59.736 96.312 58.952 97.624 58.44C98.968 57.896 100.104 57.624 101.032 57.624C101.832 57.624 102.536 57.8 103.144 58.152C103.752 58.504 104.344 59.192 104.92 60.216C105.496 61.24 106.104 62.744 106.744 64.728C107.352 66.552 107.928 67.944 108.472 68.904C109.016 69.832 109.608 70.472 110.248 70.824C110.888 71.144 111.624 71.304 112.456 71.304C113.128 71.304 113.608 71.496 113.896 71.88C114.216 72.232 114.376 72.664 114.376 73.176C114.376 73.688 114.152 74.168 113.704 74.616C113.256 75.032 112.68 75.24 111.976 75.24C110.728 75.24 109.656 75.016 108.76 74.568C107.896 74.12 107.144 73.512 106.504 72.744L107.608 71.832C107.224 72.76 106.728 73.528 106.12 74.136C105.544 74.712 104.888 75.144 104.152 75.432C103.448 75.72 102.696 75.864 101.896 75.864C100.968 75.864 100.008 75.688 99.016 75.336C98.024 75.016 97.048 74.536 96.088 73.896C95.128 73.224 94.216 72.408 93.352 71.448C92.52 70.488 91.784 69.4 91.144 68.184L91.624 68.28C90.728 69.528 90.136 70.888 89.848 72.36C89.56 73.8 89.416 75.08 89.416 76.2C89.416 77.096 89.512 78.232 89.704 79.608C89.896 81.016 90.136 82.504 90.424 84.072C90.744 85.64 91.08 87.192 91.432 88.728C91.816 90.296 92.168 91.704 92.488 92.952L88.696 93.864ZM102.28 71.928C102.856 71.928 103.32 71.816 103.672 71.592C104.056 71.368 104.312 71.032 104.44 70.584C104.568 70.136 104.52 69.576 104.296 68.904C103.912 67.752 103.56 66.744 103.24 65.88C102.92 64.984 102.6 64.248 102.28 63.672C101.992 63.064 101.688 62.616 101.368 62.328C101.048 62.04 100.712 61.896 100.36 61.896C100.008 61.896 99.56 61.976 99.016 62.136C98.504 62.296 97.944 62.536 97.336 62.856C96.76 63.176 96.168 63.576 95.56 64.056C94.952 64.536 94.376 65.096 93.832 65.736L93.88 65.352C94.584 66.824 95.432 68.056 96.424 69.048C97.448 70.04 98.472 70.776 99.496 71.256C100.552 71.704 101.48 71.928 102.28 71.928ZM111.953 75.24L112.433 71.304H116.129C118.785 71.304 120.753 71.16 122.033 70.872C123.313 70.584 124.145 70.2 124.529 69.72C124.945 69.24 125.153 68.744 125.153 68.232C125.153 67.464 124.865 66.616 124.289 65.688C123.713 64.76 122.977 63.816 122.081 62.856C121.185 61.864 120.225 60.888 119.201 59.928C118.209 58.968 117.265 58.088 116.369 57.288C115.473 56.488 114.737 55.8 114.161 55.224C113.585 54.616 113.297 54.184 113.297 53.928C113.297 53.448 113.329 52.984 113.393 52.536C113.489 52.088 113.601 51.672 113.729 51.288C113.889 50.904 114.081 50.6 114.305 50.376C114.945 49.704 115.825 49 116.945 48.264C118.065 47.496 119.361 46.728 120.833 45.96C122.305 45.16 123.873 44.36 125.537 43.56C127.201 42.728 128.881 41.896 130.577 41.064L132.209 44.616C130.673 45.384 129.137 46.152 127.601 46.92C126.065 47.656 124.577 48.392 123.137 49.128C121.697 49.864 120.337 50.616 119.057 51.384C117.809 52.12 116.673 52.872 115.649 53.64L115.937 52.008C117.377 53.224 118.737 54.392 120.017 55.512C121.297 56.632 122.513 57.784 123.665 58.968C124.817 60.12 125.889 61.368 126.881 62.712C127.873 64.056 128.801 65.544 129.665 67.176C130.337 68.424 131.121 69.336 132.017 69.912C132.913 70.488 133.793 70.872 134.657 71.064C135.553 71.224 136.273 71.304 136.817 71.304C137.489 71.304 137.969 71.496 138.257 71.88C138.577 72.232 138.737 72.664 138.737 73.176C138.737 73.688 138.513 74.168 138.065 74.616C137.617 75.032 137.041 75.24 136.337 75.24C135.473 75.24 134.449 75.112 133.265 74.856C132.113 74.568 130.977 74.024 129.857 73.224C128.737 72.424 127.809 71.208 127.073 69.576L128.513 70.152C128.033 71.016 127.473 71.768 126.833 72.408C126.225 73.016 125.441 73.544 124.481 73.992C123.521 74.408 122.353 74.728 120.977 74.952C119.601 75.144 117.921 75.24 115.937 75.24H111.953ZM136.328 75.24L136.808 71.304C138.408 71.304 139.656 71.192 140.552 70.968C141.448 70.712 142.12 70.248 142.568 69.576C143.048 68.872 143.432 67.864 143.72 66.552C144.008 65.24 144.36 63.528 144.776 61.416L148.52 62.136C148.392 62.712 148.248 63.352 148.088 64.056C147.928 64.76 147.784 65.464 147.656 66.168C147.56 66.84 147.512 67.432 147.512 67.944C147.512 68.424 147.544 68.872 147.608 69.288C147.672 69.704 147.912 70.056 148.328 70.344C148.744 70.632 149.448 70.872 150.44 71.064C151.432 71.224 152.856 71.304 154.712 71.304C155.384 71.304 155.864 71.496 156.152 71.88C156.472 72.232 156.632 72.664 156.632 73.176C156.632 73.688 156.408 74.168 155.96 74.616C155.512 75.032 154.936 75.24 154.232 75.24C152.28 75.24 150.728 75.144 149.576 74.952C148.424 74.728 147.544 74.408 146.936 73.992C146.36 73.576 145.944 73.064 145.688 72.456C145.464 71.816 145.288 71.08 145.16 70.248L146.6 70.344C146.088 71.368 145.528 72.2 144.92 72.84C144.344 73.48 143.672 73.976 142.904 74.328C142.136 74.68 141.208 74.92 140.12 75.048C139.064 75.176 137.8 75.24 136.328 75.24ZM148.424 84.312C147.752 84.312 147.176 84.072 146.696 83.592C146.248 83.144 146.024 82.6 146.024 81.96C146.024 81.32 146.248 80.76 146.696 80.28C147.176 79.8 147.752 79.56 148.424 79.56C149.064 79.56 149.608 79.8 150.056 80.28C150.536 80.76 150.776 81.32 150.776 81.96C150.776 82.6 150.536 83.144 150.056 83.592C149.608 84.072 149.064 84.312 148.424 84.312ZM141.848 84.312C141.176 84.312 140.6 84.072 140.12 83.592C139.672 83.144 139.448 82.6 139.448 81.96C139.448 81.32 139.672 80.76 140.12 80.28C140.6 79.8 141.176 79.56 141.848 79.56C142.488 79.56 143.032 79.8 143.48 80.28C143.96 80.76 144.2 81.32 144.2 81.96C144.2 82.6 143.96 83.144 143.48 83.592C143.032 84.072 142.488 84.312 141.848 84.312ZM154.234 75.24L154.666 71.304C156.49 71.304 157.77 71.128 158.506 70.776C159.242 70.424 159.658 69.8 159.754 68.904C159.882 68.008 159.914 66.76 159.85 65.16L159.034 40.728H163.018L163.786 65.064C163.85 66.696 164.106 67.976 164.554 68.904C165.034 69.8 165.674 70.424 166.474 70.776C167.274 71.128 168.154 71.304 169.114 71.304C169.786 71.304 170.266 71.496 170.554 71.88C170.874 72.232 171.034 72.664 171.034 73.176C171.034 73.688 170.81 74.168 170.362 74.616C169.914 75.032 169.338 75.24 168.634 75.24C167.29 75.24 166.17 75.032 165.274 74.616C164.41 74.168 163.722 73.608 163.21 72.936C162.73 72.232 162.41 71.496 162.25 70.728L163.258 70.824C162.938 71.784 162.41 72.6 161.674 73.272C160.97 73.912 160.01 74.408 158.794 74.76C157.578 75.08 156.058 75.24 154.234 75.24ZM168.625 75.24L169.105 71.304C171.121 71.304 172.673 71.288 173.761 71.256C174.881 71.224 175.697 71.192 176.209 71.16C176.721 71.096 177.073 71.064 177.265 71.064C176.689 70.744 176.017 70.248 175.249 69.576C174.481 68.872 173.809 67.992 173.233 66.936C172.657 65.848 172.369 64.568 172.369 63.096C172.369 61.272 172.785 59.672 173.617 58.296C174.481 56.92 175.649 55.848 177.121 55.08C178.625 54.312 180.337 53.928 182.257 53.928C182.993 53.928 183.777 53.992 184.609 54.12C185.441 54.248 186.241 54.44 187.009 54.696L186.193 58.392C185.553 58.232 184.881 58.104 184.177 58.008C183.473 57.912 182.833 57.864 182.257 57.864C181.105 57.864 180.081 58.088 179.185 58.536C178.289 58.952 177.585 59.544 177.073 60.312C176.561 61.08 176.305 62.008 176.305 63.096C176.305 63.928 176.481 64.696 176.833 65.4C177.185 66.072 177.649 66.68 178.225 67.224C178.801 67.768 179.441 68.216 180.145 68.568C180.849 68.92 181.537 69.192 182.209 69.384C182.913 69.576 183.537 69.656 184.081 69.624C184.465 69.496 184.817 69.384 185.137 69.288C185.457 69.192 185.809 69.08 186.193 68.952C186.609 68.792 187.105 68.584 187.681 68.328C188.289 68.072 189.057 67.736 189.985 67.32L191.329 70.824C189.185 71.688 186.993 72.456 184.753 73.128C182.545 73.8 180.129 74.328 177.505 74.712C174.913 75.064 171.953 75.24 168.625 75.24ZM208.552 93.864C208.008 91.752 207.528 89.688 207.112 87.672C206.728 85.656 206.44 83.8 206.248 82.104C206.056 80.408 205.96 79.016 205.96 77.928C205.96 75.976 206.312 74.36 207.016 73.08C207.72 71.768 208.664 70.76 209.848 70.056C211.032 69.32 212.344 68.824 213.784 68.568C215.256 68.312 216.76 68.232 218.296 68.328C219.864 68.392 221.336 68.584 222.712 68.904C222.808 67.816 222.744 66.776 222.52 65.784C222.328 64.76 221.992 63.864 221.512 63.096C221.064 62.296 220.488 61.672 219.784 61.224C219.08 60.776 218.28 60.552 217.384 60.552C216.584 60.552 215.832 60.728 215.128 61.08C214.424 61.432 213.752 61.976 213.112 62.712C212.504 63.416 211.912 64.296 211.336 65.352L208.36 63.72C209.192 61.992 210.104 60.616 211.096 59.592C212.12 58.568 213.192 57.832 214.312 57.384C215.432 56.904 216.536 56.664 217.624 56.664C219.256 56.664 220.632 57.016 221.752 57.72C222.872 58.392 223.752 59.288 224.392 60.408C225.064 61.496 225.544 62.68 225.832 63.96C226.152 65.208 226.312 66.408 226.312 67.56C226.312 68.36 226.216 69.16 226.024 69.96C225.832 70.76 225.592 71.48 225.304 72.12C225.048 72.76 224.792 73.256 224.536 73.608C222.808 73.096 221.192 72.728 219.688 72.504C218.184 72.28 216.824 72.216 215.608 72.312C214.424 72.376 213.4 72.632 212.536 73.08C211.672 73.528 211.016 74.168 210.568 75C210.12 75.832 209.896 76.888 209.896 78.168C209.896 79.352 209.992 80.76 210.184 82.392C210.376 84.024 210.648 85.736 211 87.528C211.352 89.352 211.768 91.144 212.248 92.904L208.552 93.864ZM257.002 75.24C255.082 75.24 253.498 75.08 252.25 74.76C251.034 74.44 250.074 73.944 249.37 73.272C248.698 72.6 248.218 71.752 247.93 70.728C247.674 69.672 247.514 68.424 247.45 66.984L246.49 40.728H250.426L251.386 65.448C251.45 67.016 251.594 68.232 251.818 69.096C252.074 69.928 252.618 70.504 253.45 70.824C254.314 71.144 255.658 71.304 257.482 71.304C258.154 71.304 258.634 71.496 258.922 71.88C259.242 72.232 259.402 72.664 259.402 73.176C259.402 73.688 259.178 74.168 258.73 74.616C258.282 75.032 257.706 75.24 257.002 75.24ZM235.066 75.24C234.202 75.24 233.322 75.16 232.426 75C231.562 74.872 230.954 74.776 230.602 74.712L231.13 70.92C233.338 71.208 235.418 71.256 237.37 71.064C239.322 70.872 241.018 70.328 242.458 69.432C243.93 68.504 245.082 67.112 245.914 65.256C246.746 63.4 247.162 60.984 247.162 58.008L249.466 63.768C249.082 65.784 248.506 67.48 247.738 68.856C246.97 70.2 246.074 71.304 245.05 72.168C244.058 73 242.986 73.64 241.834 74.088C240.682 74.536 239.53 74.84 238.378 75C237.226 75.16 236.122 75.24 235.066 75.24ZM245.482 68.664C244.97 67.672 244.25 66.52 243.322 65.208C242.394 63.864 241.274 62.408 239.962 60.84C238.65 59.272 237.162 57.64 235.498 55.944C233.866 54.248 232.09 52.536 230.17 50.808L232.762 48.072C234.874 50.088 236.746 51.976 238.378 53.736C240.042 55.464 241.498 57.096 242.746 58.632C243.994 60.136 245.066 61.512 245.962 62.76C246.858 64.008 247.61 65.144 248.218 66.168L245.482 68.664ZM256.984 75.24L257.464 71.304C258.488 71.304 259.32 71.24 259.96 71.112C260.6 70.952 261.128 70.584 261.544 70.008C261.992 69.4 262.408 68.456 262.792 67.176C263.176 65.896 263.624 64.104 264.136 61.8L267.736 62.808C267.544 63.608 267.32 64.568 267.064 65.688C266.808 66.808 266.68 67.832 266.68 68.76C266.68 69.272 266.808 69.72 267.064 70.104C267.32 70.488 267.752 70.792 268.36 71.016C269 71.208 269.848 71.304 270.904 71.304C271.864 71.304 272.648 71.224 273.256 71.064C273.864 70.904 274.36 70.52 274.744 69.912C275.16 69.304 275.528 68.328 275.848 66.984C276.168 65.64 276.504 63.8 276.856 61.464L280.504 62.136C280.408 62.712 280.296 63.416 280.168 64.248C280.04 65.08 279.912 65.912 279.784 66.744C279.688 67.544 279.64 68.216 279.64 68.76C279.64 69.208 279.736 69.64 279.928 70.056C280.152 70.44 280.568 70.744 281.176 70.968C281.816 71.192 282.76 71.304 284.008 71.304C285.608 71.304 286.76 70.968 287.464 70.296C288.2 69.624 288.568 68.6 288.568 67.224C288.568 66.488 288.552 65.72 288.52 64.92C288.488 64.088 288.424 63.176 288.328 62.184C288.264 61.16 288.152 59.992 287.992 58.68L291.496 58.44C291.688 61.032 291.896 63.16 292.12 64.824C292.376 66.488 292.728 67.8 293.176 68.76C293.656 69.688 294.296 70.344 295.096 70.728C295.896 71.112 296.952 71.304 298.264 71.304C298.936 71.304 299.416 71.496 299.704 71.88C300.024 72.232 300.184 72.664 300.184 73.176C300.184 73.688 299.96 74.168 299.512 74.616C299.064 75.032 298.488 75.24 297.784 75.24C296.696 75.24 295.72 75.096 294.856 74.808C294.024 74.488 293.288 74.072 292.648 73.56C292.04 73.016 291.528 72.408 291.112 71.736C290.728 71.032 290.456 70.296 290.296 69.528L291.16 69.816C290.808 71.256 290.248 72.376 289.48 73.176C288.744 73.944 287.864 74.488 286.84 74.808C285.816 75.096 284.728 75.24 283.576 75.24C282.168 75.24 281.016 75.064 280.12 74.712C279.224 74.36 278.52 73.832 278.008 73.128C277.528 72.392 277.208 71.464 277.048 70.344H278.68C278.072 71.72 277.432 72.76 276.76 73.464C276.088 74.168 275.256 74.648 274.264 74.904C273.272 75.128 271.96 75.24 270.328 75.24C269.528 75.24 268.664 75.112 267.736 74.856C266.84 74.6 266.056 74.104 265.384 73.368C264.712 72.6 264.312 71.464 264.184 69.96L265.624 69.672C265.08 71.304 264.408 72.52 263.608 73.32C262.84 74.088 261.912 74.6 260.824 74.856C259.736 75.112 258.456 75.24 256.984 75.24ZM297.766 75.24L298.198 71.304C300.022 71.304 301.302 71.128 302.038 70.776C302.774 70.424 303.19 69.8 303.286 68.904C303.414 68.008 303.446 66.76 303.382 65.16L302.47 40.728H306.358L307.318 64.728C307.382 66.424 307.318 67.928 307.126 69.24C306.966 70.552 306.55 71.656 305.878 72.552C305.238 73.448 304.262 74.12 302.95 74.568C301.67 75.016 299.942 75.24 297.766 75.24ZM314.65 75L313.69 40.728H317.578L318.538 75H314.65Z" fill="black"/>
</svg>
