<svg width="356" height="159" viewBox="0 0 356 159" fill="none" xmlns="http://www.w3.org/2000/svg">
<rect width="356" height="117" rx="58.5" fill="#A7FFF9"/>
<path d="M38.5159 135.429C33.7515 138.43 27.5739 134.863 27.7905 129.237L29.0835 95.6436C29.2862 90.3779 35.0147 87.2159 39.5783 89.8507L66.7312 105.527C71.2948 108.162 71.4207 114.704 66.9618 117.513L38.5159 135.429Z" fill="#A7FFF9"/>
<path d="M104.84 75.48C102.888 75.48 101.08 74.984 99.416 73.992C97.752 72.968 96.456 71.688 95.528 70.152V75H92.6V39.96H95.864V55.224C96.984 53.528 98.328 52.168 99.896 51.144C101.464 50.088 103.288 49.56 105.368 49.56C107.128 49.56 108.696 49.928 110.072 50.664C111.48 51.4 112.68 52.392 113.672 53.64C114.664 54.856 115.416 56.248 115.928 57.816C116.44 59.352 116.696 60.936 116.696 62.568C116.696 64.328 116.392 65.976 115.784 67.512C115.208 69.048 114.376 70.424 113.288 71.64C112.2 72.824 110.936 73.768 109.496 74.472C108.088 75.144 106.536 75.48 104.84 75.48ZM104.072 72.6C105.416 72.6 106.664 72.328 107.816 71.784C108.968 71.24 109.96 70.488 110.792 69.528C111.624 68.568 112.264 67.496 112.712 66.312C113.16 65.096 113.384 63.848 113.384 62.568C113.384 60.808 113 59.16 112.232 57.624C111.496 56.056 110.456 54.808 109.112 53.88C107.8 52.92 106.248 52.44 104.456 52.44C103.176 52.44 101.976 52.728 100.856 53.304C99.768 53.88 98.792 54.648 97.928 55.608C97.096 56.536 96.408 57.56 95.864 58.68V66.456C95.992 67.32 96.328 68.136 96.872 68.904C97.416 69.64 98.088 70.28 98.888 70.824C99.72 71.368 100.584 71.8 101.48 72.12C102.376 72.44 103.24 72.6 104.072 72.6ZM132.881 75.48C131.089 75.48 129.425 75.144 127.889 74.472C126.385 73.768 125.073 72.824 123.953 71.64C122.865 70.424 122.017 69.048 121.409 67.512C120.801 65.944 120.497 64.296 120.497 62.568C120.497 60.776 120.801 59.112 121.409 57.576C122.017 56.008 122.881 54.632 124.001 53.448C125.121 52.232 126.433 51.288 127.937 50.616C129.473 49.912 131.137 49.56 132.929 49.56C134.721 49.56 136.369 49.912 137.873 50.616C139.377 51.288 140.689 52.232 141.809 53.448C142.929 54.632 143.793 56.008 144.401 57.576C145.009 59.112 145.313 60.776 145.313 62.568C145.313 64.296 145.009 65.944 144.401 67.512C143.793 69.048 142.929 70.424 141.809 71.64C140.721 72.824 139.409 73.768 137.873 74.472C136.369 75.144 134.705 75.48 132.881 75.48ZM123.809 62.616C123.809 64.472 124.209 66.168 125.009 67.704C125.841 69.208 126.945 70.408 128.321 71.304C129.697 72.168 131.217 72.6 132.881 72.6C134.545 72.6 136.065 72.152 137.441 71.256C138.817 70.36 139.921 69.144 140.753 67.608C141.585 66.04 142.001 64.344 142.001 62.52C142.001 60.664 141.585 58.968 140.753 57.432C139.921 55.896 138.817 54.68 137.441 53.784C136.065 52.888 134.545 52.44 132.881 52.44C131.217 52.44 129.697 52.904 128.321 53.832C126.977 54.76 125.889 55.992 125.057 57.528C124.225 59.032 123.809 60.728 123.809 62.616ZM171.796 75H168.532V61.032C168.532 58.088 168.1 55.944 167.236 54.6C166.372 53.224 165.012 52.536 163.156 52.536C161.876 52.536 160.612 52.856 159.364 53.496C158.116 54.104 157.012 54.952 156.052 56.04C155.124 57.096 154.452 58.312 154.036 59.688V75H150.772V49.992H153.748V55.656C154.42 54.44 155.3 53.384 156.388 52.488C157.476 51.56 158.708 50.84 160.084 50.328C161.46 49.816 162.884 49.56 164.356 49.56C165.732 49.56 166.9 49.816 167.86 50.328C168.82 50.84 169.588 51.576 170.164 52.536C170.74 53.464 171.156 54.6 171.412 55.944C171.668 57.256 171.796 58.728 171.796 60.36V75ZM175.012 83.688C173.956 83.688 172.964 83.544 172.036 83.256C171.076 82.968 170.244 82.488 169.54 81.816L171.124 79.608C171.604 80.056 172.164 80.36 172.804 80.52C173.412 80.68 174.02 80.76 174.628 80.76C175.396 80.76 176.116 80.568 176.788 80.184C177.46 79.8 178.004 79.256 178.42 78.552C178.868 77.88 179.092 77.128 179.092 76.296V49.992H182.356V76.104C182.356 77.576 182.004 78.888 181.3 80.04C180.596 81.192 179.684 82.088 178.564 82.728C177.444 83.368 176.26 83.688 175.012 83.688ZM179.092 44.76V39.96H182.356V44.76H179.092ZM200.194 75.48C198.402 75.48 196.738 75.144 195.202 74.472C193.698 73.768 192.386 72.824 191.266 71.64C190.178 70.424 189.33 69.048 188.722 67.512C188.114 65.944 187.81 64.296 187.81 62.568C187.81 60.776 188.114 59.112 188.722 57.576C189.33 56.008 190.194 54.632 191.314 53.448C192.434 52.232 193.746 51.288 195.25 50.616C196.786 49.912 198.45 49.56 200.242 49.56C202.034 49.56 203.682 49.912 205.186 50.616C206.69 51.288 208.002 52.232 209.122 53.448C210.242 54.632 211.106 56.008 211.714 57.576C212.322 59.112 212.626 60.776 212.626 62.568C212.626 64.296 212.322 65.944 211.714 67.512C211.106 69.048 210.242 70.424 209.122 71.64C208.034 72.824 206.722 73.768 205.186 74.472C203.682 75.144 202.018 75.48 200.194 75.48ZM191.122 62.616C191.122 64.472 191.522 66.168 192.322 67.704C193.154 69.208 194.258 70.408 195.634 71.304C197.01 72.168 198.53 72.6 200.194 72.6C201.858 72.6 203.378 72.152 204.754 71.256C206.13 70.36 207.234 69.144 208.066 67.608C208.898 66.04 209.314 64.344 209.314 62.52C209.314 60.664 208.898 58.968 208.066 57.432C207.234 55.896 206.13 54.68 204.754 53.784C203.378 52.888 201.858 52.44 200.194 52.44C198.53 52.44 197.01 52.904 195.634 53.832C194.29 54.76 193.202 55.992 192.37 57.528C191.538 59.032 191.122 60.728 191.122 62.616ZM217.844 64.68V49.992H221.108V64.104C221.108 66.952 221.588 69.08 222.548 70.488C223.54 71.896 224.996 72.6 226.916 72.6C228.196 72.6 229.428 72.328 230.612 71.784C231.828 71.208 232.9 70.408 233.828 69.384C234.756 68.328 235.46 67.112 235.94 65.736V49.992H239.204V71.064C239.204 71.512 239.3 71.848 239.492 72.072C239.684 72.264 239.972 72.376 240.356 72.408V75C239.972 75.032 239.668 75.048 239.444 75.048C239.22 75.08 239.012 75.096 238.82 75.096C238.18 75.032 237.62 74.776 237.14 74.328C236.692 73.88 236.452 73.336 236.42 72.696L236.324 69.336C235.236 71.256 233.748 72.76 231.86 73.848C230.004 74.936 227.988 75.48 225.812 75.48C223.188 75.48 221.204 74.568 219.86 72.744C218.516 70.92 217.844 68.232 217.844 64.68ZM259.064 52.872C256.888 52.936 254.968 53.544 253.304 54.696C251.672 55.848 250.52 57.432 249.848 59.448V75H246.584V49.992H249.656V55.992C250.52 54.232 251.656 52.808 253.064 51.72C254.504 50.632 256.024 50.024 257.624 49.896C257.944 49.864 258.216 49.848 258.44 49.848C258.696 49.848 258.904 49.864 259.064 49.896V52.872Z" fill="black"/>
</svg>
