<svg width="390" height="159" viewBox="0 0 390 159" fill="none" xmlns="http://www.w3.org/2000/svg">
<rect width="390" height="117" rx="58.5" transform="matrix(-1 0 0 1 390 0)" fill="#A1CCFF"/>
<path d="M351.484 135.429C356.249 138.43 362.426 134.863 362.209 129.237L360.916 95.6436C360.714 90.3779 354.985 87.2159 350.422 89.8507L323.269 105.527C318.705 108.162 318.579 114.704 323.038 117.513L351.484 135.429Z" fill="#A1CCFF"/>
<path d="M121.064 35.304H125.048V67.272H121.064V35.304ZM123.8 48.504H131.48V51.816H123.8V48.504ZM98.024 74.52H127.016V77.784H98.024V74.52ZM98.024 64.008H102.008V75.816H98.024V64.008ZM103.496 38.376C109.976 38.376 114.824 42.84 114.824 49.08C114.824 55.368 109.976 59.784 103.496 59.784C97.016 59.784 92.168 55.368 92.168 49.08C92.168 42.84 97.016 38.376 103.496 38.376ZM103.496 41.88C99.272 41.88 96.056 44.856 96.056 49.08C96.056 53.352 99.272 56.28 103.496 56.28C107.72 56.28 110.936 53.352 110.936 49.08C110.936 44.856 107.72 41.88 103.496 41.88ZM138.148 37.944H142.084V56.664H138.148V37.944ZM138.148 55.704H141.412C149.044 55.704 154.324 55.464 160.324 54.216L160.852 57.432C154.612 58.728 149.236 59.016 141.412 59.016H138.148V55.704ZM167.236 35.352H171.22V61.944H167.236V35.352ZM155.092 40.44H168.34V43.56H155.092V40.44ZM155.092 48.072H168.34V51.24H155.092V48.072ZM156.964 62.328C165.892 62.328 171.412 65.352 171.412 70.536C171.412 75.72 165.892 78.696 156.964 78.696C147.988 78.696 142.468 75.72 142.468 70.536C142.468 65.352 147.988 62.328 156.964 62.328ZM156.964 65.496C150.436 65.496 146.452 67.368 146.452 70.536C146.452 73.704 150.436 75.528 156.964 75.528C163.492 75.528 167.476 73.704 167.476 70.536C167.476 67.368 163.492 65.496 156.964 65.496ZM209.089 35.352H213.073V78.744H209.089V35.352ZM212.113 53.16H220.177V56.52H212.113V53.16ZM179.473 42.264H205.057V45.528H179.473V42.264ZM192.433 49.128C198.577 49.128 202.993 53.256 202.993 59.112C202.993 64.968 198.577 69.096 192.433 69.096C186.337 69.096 181.873 64.968 181.873 59.112C181.873 53.256 186.337 49.128 192.433 49.128ZM192.433 52.44C188.497 52.44 185.665 55.176 185.665 59.112C185.665 63 188.497 65.784 192.433 65.784C196.369 65.784 199.201 63 199.201 59.112C199.201 55.176 196.369 52.44 192.433 52.44ZM190.369 35.88H194.353V43.752H190.369V35.88ZM240.957 50.856H249.261V54.168H240.957V50.856ZM232.845 39.432H235.965V47.688C235.965 56.76 232.173 65.544 225.837 69.432L223.341 66.408C229.293 62.904 232.845 55.128 232.845 47.688V39.432ZM233.613 39.432H236.685V47.544C236.685 54.504 239.949 61.896 245.661 65.352L243.357 68.472C237.117 64.632 233.613 55.992 233.613 47.544V39.432ZM256.893 35.352H260.733V78.744H256.893V35.352ZM248.109 36.264H251.853V76.584H248.109V36.264ZM277.625 57.672H281.561V70.68H277.625V57.672ZM293.657 57.672H297.641V70.68H293.657V57.672ZM268.025 69.912H307.337V73.224H268.025V69.912ZM287.609 38.088C296.777 38.088 303.353 42.456 303.353 49.272C303.353 56.04 296.777 60.408 287.609 60.408C278.393 60.408 271.817 56.04 271.817 49.272C271.817 42.456 278.393 38.088 287.609 38.088ZM287.609 41.256C280.649 41.256 275.657 44.424 275.657 49.272C275.657 54.072 280.649 57.24 287.609 57.24C294.569 57.24 299.513 54.072 299.513 49.272C299.513 44.424 294.569 41.256 287.609 41.256Z" fill="black"/>
</svg>
