<svg width="250" height="159" viewBox="0 0 250 159" fill="none" xmlns="http://www.w3.org/2000/svg">
<rect x="3.05176e-05" width="249.321" height="117" rx="58.5" fill="#92FFBD"/>
<path d="M40.7866 135.887C35.8793 138.75 29.736 135.464 29.959 130.095L31.3953 95.5202C31.6099 90.3561 37.5996 87.113 42.2893 89.6217L72.452 105.756C77.1417 108.265 77.1052 114.693 72.3855 117.447L40.7866 135.887Z" fill="#92FFBD"/>
<path d="M88.552 93.864C88.008 91.752 87.528 89.688 87.112 87.672C86.728 85.656 86.44 83.8 86.248 82.104C86.056 80.408 85.96 79.016 85.96 77.928C85.96 75.976 86.312 74.36 87.016 73.08C87.72 71.768 88.664 70.76 89.848 70.056C91.032 69.32 92.344 68.824 93.784 68.568C95.256 68.312 96.76 68.232 98.296 68.328C99.864 68.392 101.336 68.584 102.712 68.904C102.808 67.816 102.744 66.776 102.52 65.784C102.328 64.76 101.992 63.864 101.512 63.096C101.064 62.296 100.488 61.672 99.784 61.224C99.08 60.776 98.28 60.552 97.384 60.552C96.584 60.552 95.832 60.728 95.128 61.08C94.424 61.432 93.752 61.976 93.112 62.712C92.504 63.416 91.912 64.296 91.336 65.352L88.36 63.72C89.192 61.992 90.104 60.616 91.096 59.592C92.12 58.568 93.192 57.832 94.312 57.384C95.432 56.904 96.536 56.664 97.624 56.664C99.256 56.664 100.632 57.016 101.752 57.72C102.872 58.392 103.752 59.288 104.392 60.408C105.064 61.496 105.544 62.68 105.832 63.96C106.152 65.208 106.312 66.408 106.312 67.56C106.312 68.36 106.216 69.16 106.024 69.96C105.832 70.76 105.592 71.48 105.304 72.12C105.048 72.76 104.792 73.256 104.536 73.608C102.808 73.096 101.192 72.728 99.688 72.504C98.184 72.28 96.824 72.216 95.608 72.312C94.424 72.376 93.4 72.632 92.536 73.08C91.672 73.528 91.016 74.168 90.568 75C90.12 75.832 89.896 76.888 89.896 78.168C89.896 79.352 89.992 80.76 90.184 82.392C90.376 84.024 90.648 85.736 91 87.528C91.352 89.352 91.768 91.144 92.248 92.904L88.552 93.864ZM137.002 75.24C135.082 75.24 133.498 75.08 132.25 74.76C131.034 74.44 130.074 73.944 129.37 73.272C128.698 72.6 128.218 71.752 127.93 70.728C127.674 69.672 127.514 68.424 127.45 66.984L126.49 40.728H130.426L131.386 65.448C131.45 67.016 131.594 68.232 131.818 69.096C132.074 69.928 132.618 70.504 133.45 70.824C134.314 71.144 135.658 71.304 137.482 71.304C138.154 71.304 138.634 71.496 138.922 71.88C139.242 72.232 139.402 72.664 139.402 73.176C139.402 73.688 139.178 74.168 138.73 74.616C138.282 75.032 137.706 75.24 137.002 75.24ZM115.066 75.24C114.202 75.24 113.322 75.16 112.426 75C111.562 74.872 110.954 74.776 110.602 74.712L111.13 70.92C113.338 71.208 115.418 71.256 117.37 71.064C119.322 70.872 121.018 70.328 122.458 69.432C123.93 68.504 125.082 67.112 125.914 65.256C126.746 63.4 127.162 60.984 127.162 58.008L129.466 63.768C129.082 65.784 128.506 67.48 127.738 68.856C126.97 70.2 126.074 71.304 125.05 72.168C124.058 73 122.986 73.64 121.834 74.088C120.682 74.536 119.53 74.84 118.378 75C117.226 75.16 116.122 75.24 115.066 75.24ZM125.482 68.664C124.97 67.672 124.25 66.52 123.322 65.208C122.394 63.864 121.274 62.408 119.962 60.84C118.65 59.272 117.162 57.64 115.498 55.944C113.866 54.248 112.09 52.536 110.17 50.808L112.762 48.072C114.874 50.088 116.746 51.976 118.378 53.736C120.042 55.464 121.498 57.096 122.746 58.632C123.994 60.136 125.066 61.512 125.962 62.76C126.858 64.008 127.61 65.144 128.218 66.168L125.482 68.664ZM151.654 52.104V49.416L162.406 46.248V48.984L151.654 52.104ZM136.984 75.24L137.464 71.304C138.488 71.304 139.32 71.24 139.96 71.112C140.6 70.952 141.128 70.584 141.544 70.008C141.992 69.4 142.408 68.456 142.792 67.176C143.176 65.896 143.624 64.104 144.136 61.8L147.736 62.808C147.608 63.352 147.464 63.976 147.304 64.68C147.144 65.352 147 66.056 146.872 66.792C146.744 67.496 146.68 68.152 146.68 68.76C146.68 69.56 146.984 70.184 147.592 70.632C148.2 71.08 149.304 71.304 150.904 71.304C151.864 71.304 152.648 71.224 153.256 71.064C153.864 70.904 154.36 70.52 154.744 69.912C155.16 69.304 155.528 68.328 155.848 66.984C156.168 65.64 156.504 63.8 156.856 61.464L160.504 62.136C160.408 62.712 160.296 63.416 160.168 64.248C160.04 65.08 159.912 65.912 159.784 66.744C159.688 67.544 159.64 68.216 159.64 68.76C159.64 69.208 159.736 69.64 159.928 70.056C160.152 70.44 160.568 70.744 161.176 70.968C161.816 71.192 162.76 71.304 164.008 71.304C164.936 71.304 165.736 71.192 166.408 70.968C167.112 70.744 167.64 70.328 167.992 69.72C168.376 69.112 168.568 68.264 168.568 67.176C168.568 65.96 168.28 64.44 167.704 62.616C167.16 60.76 166.536 58.92 165.832 57.096L169.72 55.656C170.136 56.68 170.52 57.848 170.872 59.16C171.256 60.472 171.576 61.768 171.832 63.048C172.088 64.328 172.216 65.448 172.216 66.408C172.216 67.88 172.024 69.176 171.64 70.296C171.256 71.416 170.712 72.344 170.008 73.08C169.304 73.784 168.44 74.328 167.416 74.712C166.392 75.064 165.24 75.24 163.96 75.24C162.456 75.24 161.224 75.064 160.264 74.712C159.304 74.36 158.568 73.832 158.056 73.128C157.544 72.392 157.208 71.464 157.048 70.344H158.68C158.072 71.72 157.432 72.76 156.76 73.464C156.088 74.168 155.256 74.648 154.264 74.904C153.272 75.128 151.96 75.24 150.328 75.24C149.528 75.24 148.664 75.112 147.736 74.856C146.84 74.6 146.056 74.104 145.384 73.368C144.712 72.6 144.312 71.464 144.184 69.96L145.624 69.672C145.08 71.304 144.408 72.52 143.608 73.32C142.84 74.088 141.912 74.6 140.824 74.856C139.736 75.112 138.456 75.24 136.984 75.24Z" fill="black"/>
</svg>
