<svg width="250" height="159" viewBox="0 0 250 159" fill="none" xmlns="http://www.w3.org/2000/svg">
<rect width="249.321" height="117" rx="58.5" transform="matrix(-1 0 0 1 249.321 0)" fill="#FFA8A8"/>
<path d="M208.535 135.887C213.442 138.75 219.585 135.464 219.362 130.095L217.926 95.5202C217.711 90.3561 211.722 87.113 207.032 89.6217L176.869 105.756C172.179 108.265 172.216 114.693 176.936 117.447L208.535 135.887Z" fill="#FFA8A8"/>
<path d="M99.256 75.48C97.464 75.48 95.8 75.144 94.264 74.472C92.76 73.768 91.448 72.824 90.328 71.64C89.24 70.424 88.392 69.048 87.784 67.512C87.176 65.944 86.872 64.296 86.872 62.568C86.872 60.776 87.176 59.112 87.784 57.576C88.392 56.008 89.256 54.632 90.376 53.448C91.496 52.232 92.808 51.288 94.312 50.616C95.848 49.912 97.512 49.56 99.304 49.56C101.096 49.56 102.744 49.912 104.248 50.616C105.752 51.288 107.064 52.232 108.184 53.448C109.304 54.632 110.168 56.008 110.776 57.576C111.384 59.112 111.688 60.776 111.688 62.568C111.688 64.296 111.384 65.944 110.776 67.512C110.168 69.048 109.304 70.424 108.184 71.64C107.096 72.824 105.784 73.768 104.248 74.472C102.744 75.144 101.08 75.48 99.256 75.48ZM90.184 62.616C90.184 64.472 90.584 66.168 91.384 67.704C92.216 69.208 93.32 70.408 94.696 71.304C96.072 72.168 97.592 72.6 99.256 72.6C100.92 72.6 102.44 72.152 103.816 71.256C105.192 70.36 106.296 69.144 107.128 67.608C107.96 66.04 108.376 64.344 108.376 62.52C108.376 60.664 107.96 58.968 107.128 57.432C106.296 55.896 105.192 54.68 103.816 53.784C102.44 52.888 100.92 52.44 99.256 52.44C97.592 52.44 96.072 52.904 94.696 53.832C93.352 54.76 92.264 55.992 91.432 57.528C90.6 59.032 90.184 60.728 90.184 62.616ZM117.291 39.96H120.555V69.336C120.555 70.584 120.779 71.4 121.227 71.784C121.675 72.168 122.219 72.36 122.859 72.36C123.435 72.36 124.011 72.296 124.587 72.168C125.163 72.04 125.659 71.912 126.075 71.784L126.651 74.424C126.043 74.68 125.291 74.888 124.395 75.048C123.531 75.208 122.779 75.288 122.139 75.288C120.667 75.288 119.483 74.856 118.587 73.992C117.723 73.128 117.291 71.944 117.291 70.44V39.96ZM128.209 67.8C128.209 66.232 128.657 64.888 129.553 63.768C130.449 62.616 131.681 61.736 133.249 61.128C134.849 60.488 136.689 60.168 138.769 60.168C139.985 60.168 141.249 60.264 142.561 60.456C143.873 60.648 145.041 60.936 146.065 61.32V59.208C146.065 57.096 145.441 55.416 144.193 54.168C142.945 52.92 141.217 52.296 139.009 52.296C137.665 52.296 136.337 52.552 135.025 53.064C133.745 53.544 132.401 54.264 130.993 55.224L129.745 52.92C131.377 51.8 132.977 50.968 134.545 50.424C136.113 49.848 137.713 49.56 139.345 49.56C142.417 49.56 144.849 50.44 146.641 52.2C148.433 53.96 149.329 56.392 149.329 59.496V71.064C149.329 71.512 149.425 71.848 149.617 72.072C149.809 72.264 150.113 72.376 150.529 72.408V75C150.177 75.032 149.873 75.064 149.617 75.096C149.361 75.128 149.169 75.128 149.041 75.096C148.241 75.064 147.633 74.808 147.217 74.328C146.801 73.848 146.577 73.336 146.545 72.792L146.497 70.968C145.377 72.408 143.921 73.528 142.129 74.328C140.337 75.096 138.513 75.48 136.657 75.48C135.057 75.48 133.601 75.144 132.289 74.472C131.009 73.768 130.001 72.84 129.265 71.688C128.561 70.504 128.209 69.208 128.209 67.8ZM144.961 69.72C145.313 69.272 145.585 68.84 145.777 68.424C145.969 68.008 146.065 67.64 146.065 67.32V63.672C144.977 63.256 143.841 62.936 142.657 62.712C141.505 62.488 140.337 62.376 139.153 62.376C136.817 62.376 134.929 62.84 133.489 63.768C132.049 64.696 131.329 65.96 131.329 67.56C131.329 68.488 131.569 69.368 132.049 70.2C132.529 71 133.233 71.672 134.161 72.216C135.089 72.728 136.177 72.984 137.425 72.984C138.993 72.984 140.449 72.68 141.793 72.072C143.169 71.464 144.225 70.68 144.961 69.72ZM140.401 45.24L138.241 44.424L141.073 39.96H144.529L140.401 45.24Z" fill="black"/>
</svg>
