<svg width="290" height="159" viewBox="0 0 290 159" fill="none" xmlns="http://www.w3.org/2000/svg">
<rect width="290" height="117" rx="58.5" fill="#FFD976"/>
<path d="M38.5159 135.429C33.7515 138.43 27.5739 134.863 27.7905 129.237L29.0835 95.6436C29.2862 90.3779 35.0147 87.2159 39.5783 89.8507L66.7312 105.527C71.2948 108.162 71.4207 114.704 66.9618 117.513L38.5159 135.429Z" fill="#FFD976"/>
<path d="M119.624 75H116.36V61.032C116.36 58.216 115.864 56.104 114.872 54.696C113.88 53.256 112.456 52.536 110.6 52.536C109.384 52.536 108.168 52.856 106.952 53.496C105.768 54.104 104.712 54.952 103.784 56.04C102.888 57.096 102.248 58.312 101.864 59.688V75H98.6V39.96H101.864V55.656C102.856 53.8 104.232 52.328 105.992 51.24C107.784 50.12 109.688 49.56 111.704 49.56C113.144 49.56 114.36 49.816 115.352 50.328C116.376 50.84 117.192 51.592 117.8 52.584C118.44 53.544 118.904 54.68 119.192 55.992C119.48 57.272 119.624 58.728 119.624 60.36V75ZM137.24 75.48C135.448 75.48 133.784 75.144 132.248 74.472C130.744 73.768 129.432 72.824 128.312 71.64C127.224 70.424 126.376 69.048 125.768 67.512C125.16 65.944 124.856 64.296 124.856 62.568C124.856 60.776 125.16 59.112 125.768 57.576C126.376 56.008 127.24 54.632 128.36 53.448C129.48 52.232 130.792 51.288 132.296 50.616C133.832 49.912 135.496 49.56 137.288 49.56C139.08 49.56 140.728 49.912 142.232 50.616C143.736 51.288 145.048 52.232 146.168 53.448C147.288 54.632 148.152 56.008 148.76 57.576C149.368 59.112 149.672 60.776 149.672 62.568C149.672 64.296 149.368 65.944 148.76 67.512C148.152 69.048 147.288 70.424 146.168 71.64C145.08 72.824 143.768 73.768 142.232 74.472C140.728 75.144 139.064 75.48 137.24 75.48ZM128.168 62.616C128.168 64.472 128.568 66.168 129.368 67.704C130.2 69.208 131.304 70.408 132.68 71.304C134.056 72.168 135.576 72.6 137.24 72.6C138.904 72.6 140.424 72.152 141.8 71.256C143.176 70.36 144.28 69.144 145.112 67.608C145.944 66.04 146.36 64.344 146.36 62.52C146.36 60.664 145.944 58.968 145.112 57.432C144.28 55.896 143.176 54.68 141.8 53.784C140.424 52.888 138.904 52.44 137.24 52.44C135.576 52.44 134.056 52.904 132.68 53.832C131.336 54.76 130.248 55.992 129.416 57.528C128.584 59.032 128.168 60.728 128.168 62.616ZM155.275 39.96H158.539V69.336C158.539 70.584 158.763 71.4 159.211 71.784C159.659 72.168 160.203 72.36 160.843 72.36C161.419 72.36 161.995 72.296 162.571 72.168C163.147 72.04 163.643 71.912 164.059 71.784L164.635 74.424C164.027 74.68 163.275 74.888 162.379 75.048C161.515 75.208 160.763 75.288 160.123 75.288C158.651 75.288 157.467 74.856 156.571 73.992C155.707 73.128 155.275 71.944 155.275 70.44V39.96ZM166.193 67.8C166.193 66.232 166.641 64.888 167.537 63.768C168.433 62.616 169.665 61.736 171.233 61.128C172.833 60.488 174.673 60.168 176.753 60.168C177.969 60.168 179.233 60.264 180.545 60.456C181.857 60.648 183.025 60.936 184.049 61.32V59.208C184.049 57.096 183.425 55.416 182.177 54.168C180.929 52.92 179.201 52.296 176.993 52.296C175.649 52.296 174.321 52.552 173.009 53.064C171.729 53.544 170.385 54.264 168.977 55.224L167.729 52.92C169.361 51.8 170.961 50.968 172.529 50.424C174.097 49.848 175.697 49.56 177.329 49.56C180.401 49.56 182.833 50.44 184.625 52.2C186.417 53.96 187.313 56.392 187.313 59.496V71.064C187.313 71.512 187.409 71.848 187.601 72.072C187.793 72.264 188.097 72.376 188.513 72.408V75C188.161 75.032 187.857 75.064 187.601 75.096C187.345 75.128 187.153 75.128 187.025 75.096C186.225 75.064 185.617 74.808 185.201 74.328C184.785 73.848 184.561 73.336 184.529 72.792L184.481 70.968C183.361 72.408 181.905 73.528 180.113 74.328C178.321 75.096 176.497 75.48 174.641 75.48C173.041 75.48 171.585 75.144 170.273 74.472C168.993 73.768 167.985 72.84 167.249 71.688C166.545 70.504 166.193 69.208 166.193 67.8ZM182.945 69.72C183.297 69.272 183.569 68.84 183.761 68.424C183.953 68.008 184.049 67.64 184.049 67.32V63.672C182.961 63.256 181.825 62.936 180.641 62.712C179.489 62.488 178.321 62.376 177.137 62.376C174.801 62.376 172.913 62.84 171.473 63.768C170.033 64.696 169.313 65.96 169.313 67.56C169.313 68.488 169.553 69.368 170.033 70.2C170.513 71 171.217 71.672 172.145 72.216C173.073 72.728 174.161 72.984 175.409 72.984C176.977 72.984 178.433 72.68 179.777 72.072C181.153 71.464 182.209 70.68 182.945 69.72Z" fill="black"/>
</svg>
